<?xml version="1.0" encoding="UTF-8" standalone="no"?>
<!DOCTYPE svg PUBLIC "-//W3C//DTD SVG 1.1//EN" "http://www.w3.org/Graphics/SVG/1.1/DTD/svg11.dtd">
<svg xmlns="http://www.w3.org/2000/svg" version="1.1" viewBox="0 0 583 173">
<g stroke-width="2.00" fill="none" stroke-linecap="butt">
<path stroke="#ba1718" vector-effect="non-scaling-stroke" d="
  M 169.46 77.50
  Q 168.56 76.58 167.35 76.47
  A 1.01 0.99 -3.5 0 1 166.47 75.71
  Q 166.17 74.48 165.22 73.76
  A 1.00 1.00 0.0 0 0 163.89 73.88
  Q 163.05 74.76 161.79 74.50"
/>
<path stroke="#ba1718" vector-effect="non-scaling-stroke" d="
  M 423.24 74.62
  Q 419.32 74.45 415.79 75.75"
/>
<path stroke="#ba1718" vector-effect="non-scaling-stroke" d="
  M 390.96 76.00
  Q 390.93 74.55 389.88 73.63
  A 1.01 0.99 48.8 0 0 388.69 73.54
  Q 386.23 75.09 383.25 75.13"
/>
<path stroke="#ba1718" vector-effect="non-scaling-stroke" d="
  M 189.79 80.25
  Q 189.32 79.23 190.09 78.82
  A 0.83 0.81 -14.0 0 0 190.52 78.12
  C 190.55 75.55 185.95 77.69 185.01 78.81
  C 184.08 79.93 183.33 80.15 182.04 80.50"
/>
<path stroke="#ae4f50" stroke-opacity="0.996" vector-effect="non-scaling-stroke" d="
  M 244.29 82.00
  Q 243.18 80.86 241.68 81.26
  A 1.01 0.99 0.4 0 0 241.00 81.92
  Q 240.50 83.46 241.96 84.00"
/>
<path stroke="#ba1718" vector-effect="non-scaling-stroke" d="
  M 292.00 81.96
  Q 289.57 82.26 287.53 81.04
  C 285.98 80.11 284.89 80.18 284.37 82.06"
/>
<path stroke="#ba1718" vector-effect="non-scaling-stroke" d="
  M 343.06 76.66
  Q 341.37 74.94 339.83 76.19
  C 337.96 77.70 338.74 79.91 335.54 81.00"
/>
<path stroke="#9d4c55" stroke-opacity="0.996" vector-effect="non-scaling-stroke" d="
  M 526.82 58.86
  L 525.76 79.23"
/>
<path stroke="#ba1718" vector-effect="non-scaling-stroke" d="
  M 496.95 79.22
  Q 495.37 78.83 493.71 80.20
  A 1.06 0.97 -12.7 0 0 493.39 80.66
  L 492.37 83.79
  A 1.00 0.98 2.0 0 1 491.65 84.45
  Q 490.04 84.83 489.11 86.50"
/>
<path stroke="#5a4b46" stroke-opacity="0.988" vector-effect="non-scaling-stroke" d="
  M 489.54 114.50
  L 489.79 113.50"
/>
<path stroke="#34211f" stroke-opacity="0.988" vector-effect="non-scaling-stroke" d="
  M 486.75 103.21
  L 486.96 102.75"
/>
<path stroke="#5a4b46" stroke-opacity="0.988" vector-effect="non-scaling-stroke" d="
  M 489.00 111.04
  Q 492.73 108.96 488.00 110.29"
/>
<path stroke="#4b0616" stroke-opacity="0.992" vector-effect="non-scaling-stroke" d="
  M 133.75 102.79
  L 133.79 103.25"
/>
<path stroke="#4b0616" stroke-opacity="0.992" vector-effect="non-scaling-stroke" d="
  M 132.46 104.50
  L 131.79 104.50"
/>
<path stroke="#5a4b46" stroke-opacity="0.988" vector-effect="non-scaling-stroke" d="
  M 157.00 103.96
  L 156.25 103.71"
/>
<path stroke="#34211f" stroke-opacity="0.988" vector-effect="non-scaling-stroke" d="
  M 430.25 102.96
  L 429.75 103.21"
/>
<path stroke="#34211f" stroke-opacity="0.988" vector-effect="non-scaling-stroke" d="
  M 449.29 114.50
  L 449.54 113.75"
/>
<path stroke="#34211f" stroke-opacity="0.988" vector-effect="non-scaling-stroke" d="
  M 444.54 103.25
  L 444.46 103.00"
/>
<path stroke="#5a4b46" stroke-opacity="0.988" vector-effect="non-scaling-stroke" d="
  M 506.00 109.79
  L 506.04 110.50"
/>
<path stroke="#5a4b46" stroke-opacity="0.988" vector-effect="non-scaling-stroke" d="
  M 506.04 116.75
  L 506.00 117.21"
/>
<path stroke="#86675e" stroke-opacity="0.996" vector-effect="non-scaling-stroke" d="
  M 161.04 114.25
  Q 159.88 114.68 158.79 114.00"
/>
<path stroke="#ba1718" vector-effect="non-scaling-stroke" d="
  M 78.14 100.05
  Q 77.01 97.67 74.76 98.30
  Q 73.24 98.72 72.26 98.23
  A 0.94 0.93 54.1 0 0 71.67 98.13
  C 70.49 98.29 63.87 99.22 63.88 100.41
  Q 63.88 100.59 63.84 100.41
  L 63.54 99.00"
/>
<path stroke="#c78359" vector-effect="non-scaling-stroke" d="
  M 64.04 90.50
  L 77.31 81.70
  A 0.97 0.95 -12.5 0 0 77.75 81.02
  L 77.79 80.75"
/>
<path stroke="#c78359" vector-effect="non-scaling-stroke" d="
  M 77.21 79.37
  Q 70.10 82.87 64.04 87.75"
/>
<path stroke="#ba1718" vector-effect="non-scaling-stroke" d="
  M 14.27 62.39
  Q 7.51 72.10 6.72 85.44
  C 6.41 90.71 7.28 94.82 7.24 99.43
  A 1.01 1.00 -7.9 0 1 6.52 100.38
  Q 4.79 100.88 4.00 102.54"
/>
<path stroke="#c78359" vector-effect="non-scaling-stroke" d="
  M 1.96 98.00
  Q 0.75 88.62 1.49 79.19
  C 1.51 78.83 1.37 78.65 1.00 78.71"
/>
<path stroke="#f3924a" vector-effect="non-scaling-stroke" d="
  M 47.88 141.02
  L 53.46 142.59"
/>
<path stroke="#f3924a" vector-effect="non-scaling-stroke" d="
  M 55.75 138.79
  Q 52.30 139.78 48.75 139.71"
/>
<path stroke="#34211f" stroke-opacity="0.988" vector-effect="non-scaling-stroke" d="
  M 299.75 113.04
  Q 300.79 112.62 300.46 111.50"
/>
<path stroke="#5a4b46" stroke-opacity="0.988" vector-effect="non-scaling-stroke" d="
  M 300.46 111.50
  Q 301.87 107.31 298.29 105.50"
/>
<path stroke="#34211f" stroke-opacity="0.988" vector-effect="non-scaling-stroke" d="
  M 291.50 110.79
  L 292.50 107.21"
/>
<path stroke="#86675e" stroke-opacity="0.996" vector-effect="non-scaling-stroke" d="
  M 300.46 111.50
  Q 299.00 110.69 298.25 112.46"
/>
<path stroke="#5a4b46" stroke-opacity="0.988" vector-effect="non-scaling-stroke" d="
  M 297.00 113.21
  L 297.21 110.75"
/>
<path stroke="#5a4b46" stroke-opacity="0.988" vector-effect="non-scaling-stroke" d="
  M 297.46 108.75
  L 297.79 108.25"
/>
<path stroke="#86675e" stroke-opacity="0.996" vector-effect="non-scaling-stroke" d="
  M 386.50 107.29
  Q 385.61 108.88 385.81 110.63
  A 1.01 1.00 -1.4 0 0 386.74 111.51
  L 387.25 111.54"
/>
<path stroke="#86675e" stroke-opacity="0.996" vector-effect="non-scaling-stroke" d="
  M 388.75 110.46
  L 389.25 107.29"
/>
<path stroke="#86675e" stroke-opacity="0.996" vector-effect="non-scaling-stroke" d="
  M 243.54 108.00
  Q 243.11 110.08 241.00 110.04"
/>
<path stroke="#86675e" stroke-opacity="0.996" vector-effect="non-scaling-stroke" d="
  M 449.25 111.71
  Q 450.26 108.91 447.50 110.04"
/>
<path stroke="#5a4b46" stroke-opacity="0.988" vector-effect="non-scaling-stroke" d="
  M 295.54 110.00
  Q 296.85 107.29 294.30 107.81
  A 1.00 0.99 85.9 0 0 293.50 108.74
  L 293.35 111.73
  A 1.00 1.00 0.0 0 0 293.90 112.67
  Q 295.05 113.25 295.54 111.75"
/>
</g>
<path fill="#8e0726" d="
  M 78.14 100.05
  Q 77.01 97.67 74.76 98.30
  Q 73.24 98.72 72.26 98.23
  A 0.94 0.93 54.1 0 0 71.67 98.13
  C 70.49 98.29 63.87 99.22 63.88 100.41
  Q 63.88 100.59 63.84 100.41
  L 63.54 99.00
  L 64.04 90.50
  L 77.31 81.70
  A 0.97 0.95 -12.5 0 0 77.75 81.02
  L 77.79 80.75
  L 78.02 81.19
  A 0.80 0.79 55.2 0 0 79.27 81.42
  C 84.36 76.74 90.00 71.66 92.19 65.52
  Q 95.87 55.22 88.24 46.09
  A 1.00 1.00 0.0 0 0 86.69 46.12
  Q 84.01 49.52 79.32 49.54
  A 1.01 1.00 2.9 0 0 78.33 50.43
  C 77.25 60.04 78.04 69.74 77.21 79.37
  Q 70.10 82.87 64.04 87.75
  Q 63.77 78.41 64.08 55.00
  C 64.22 45.14 52.46 51.81 54.26 46.15
  A 1.01 1.00 -83.0 0 1 55.14 45.46
  C 62.22 44.94 69.14 44.46 76.22 45.24
  Q 80.62 45.72 85.09 45.35
  A 1.00 1.00 0.0 0 0 85.96 44.04
  Q 84.71 40.27 77.30 37.25
  Q 65.68 32.50 53.35 35.00
  Q 45.03 36.69 43.24 37.49
  Q 24.99 45.59 14.27 62.39
  Q 7.51 72.10 6.72 85.44
  C 6.41 90.71 7.28 94.82 7.24 99.43
  A 1.01 1.00 -7.9 0 1 6.52 100.38
  Q 4.79 100.88 4.00 102.54
  L 1.96 98.00
  Q 0.75 88.62 1.49 79.19
  C 1.51 78.83 1.37 78.65 1.00 78.71
  L 1.72 78.17
  A 0.95 0.94 80.1 0 0 2.07 77.67
  C 4.86 68.83 8.24 59.98 13.49 52.29
  C 21.66 40.31 35.75 31.92 49.55 28.51
  C 62.97 25.20 76.03 26.68 88.53 32.28
  C 92.20 33.92 96.60 35.22 99.17 38.41
  C 116.22 59.63 100.81 86.10 78.45 94.25
  A 1.01 1.00 -12.0 0 0 77.79 95.26
  L 78.14 100.05
  Z"
/>
<path fill="#8e0726" d="
  M 169.46 77.50
  Q 168.56 76.58 167.35 76.47
  A 1.01 0.99 -3.5 0 1 166.47 75.71
  Q 166.17 74.48 165.22 73.76
  A 1.00 1.00 0.0 0 0 163.89 73.88
  Q 163.05 74.76 161.79 74.50
  L 161.41 66.54
  A 1.01 1.00 -2.3 0 0 160.37 65.59
  L 157.13 65.71
  A 1.01 1.01 0.0 0 1 156.09 64.79
  L 155.62 59.01
  A 1.00 1.00 0.0 0 1 156.65 57.93
  L 168.52 58.31
  A 1.00 1.00 0.0 0 1 169.49 59.31
  L 169.46 77.50
  Z"
/>
<path fill="#8e0726" d="
  M 423.24 74.62
  Q 419.32 74.45 415.79 75.75
  L 415.76 66.50
  A 1.00 1.00 0.0 0 0 414.76 65.50
  L 391.70 65.50
  A 1.01 1.00 89.4 0 0 390.70 66.53
  L 390.96 76.00
  Q 390.93 74.55 389.88 73.63
  A 1.01 0.99 48.8 0 0 388.69 73.54
  Q 386.23 75.09 383.25 75.13
  L 383.00 59.21
  A 1.01 1.01 0.0 0 1 384.01 58.19
  L 422.23 58.38
  A 1.00 1.00 0.0 0 1 423.22 59.38
  L 423.24 74.62
  Z"
/>
<path fill="#e62609" d="
  M 538.94 66.69
  Q 539.05 63.31 538.31 59.18
  A 1.00 1.00 0.0 0 1 539.34 58.01
  L 546.19 58.29
  A 1.01 1.00 -88.5 0 1 547.15 59.31
  L 546.81 83.55
  A 1.01 1.00 -90.0 0 0 547.82 84.57
  L 575.26 84.36
  A 1.00 1.00 0.0 0 1 576.27 85.41
  L 575.94 92.11
  A 1.00 0.99 1.2 0 1 574.94 93.06
  L 540.11 92.98
  A 1.01 1.00 -1.2 0 1 539.11 92.03
  Q 538.47 80.24 538.94 66.69
  Z"
/>
<path fill="#8e0726" d="
  M 189.79 80.25
  Q 189.32 79.23 190.09 78.82
  A 0.83 0.81 -14.0 0 0 190.52 78.12
  C 190.55 75.55 185.95 77.69 185.01 78.81
  C 184.08 79.93 183.33 80.15 182.04 80.50
  L 182.02 59.21
  A 1.00 1.00 0.0 0 1 183.05 58.21
  C 193.60 58.51 204.98 59.22 215.38 58.25
  Q 217.26 58.07 219.05 58.74
  A 1.02 1.01 -80.5 0 1 219.70 59.66
  L 220.04 77.97
  A 1.01 1.00 -0.8 0 1 219.04 78.99
  Q 206.81 79.02 194.59 78.98
  C 192.77 78.98 191.07 77.93 189.79 80.25
  Z
  M 212.5922 68.0894
  A 1.75 1.75 0.0 0 0 210.8576 66.3242
  L 191.5983 66.1561
  A 1.75 1.75 0.0 0 0 189.8331 67.8907
  L 189.8078 70.7906
  A 1.75 1.75 0.0 0 0 191.5424 72.5558
  L 210.8017 72.7239
  A 1.75 1.75 0.0 0 0 212.5669 70.9893
  L 212.5922 68.0894
  Z"
/>
<path fill="#b00e1b" d="
  M 244.29 82.00
  Q 243.18 80.86 241.68 81.26
  A 1.01 0.99 0.4 0 0 241.00 81.92
  Q 240.50 83.46 241.96 84.00
  L 241.35 92.48
  A 1.00 1.00 0.0 0 1 240.32 93.41
  L 234.40 93.21
  A 1.00 1.00 0.0 0 1 233.44 92.16
  Q 234.20 75.78 233.91 59.39
  A 1.00 0.99 89.7 0 1 234.91 58.37
  L 271.50 58.49
  A 1.00 1.00 0.0 0 1 272.50 59.49
  L 272.50 81.18
  A 1.01 1.00 -0.0 0 1 271.49 82.18
  L 244.29 82.00
  Z
  M 264.7086 66.7896
  A 2.14 2.14 0.0 0 0 262.5612 64.6570
  L 243.6613 64.7230
  A 2.14 2.14 0.0 0 0 241.5288 66.8705
  L 241.5514 73.3504
  A 2.14 2.14 0.0 0 0 243.6988 75.4830
  L 262.5987 75.4170
  A 2.14 2.14 0.0 0 0 264.7312 73.2695
  L 264.7086 66.7896
  Z"
/>
<path fill="#8e0726" d="
  M 292.00 81.96
  Q 289.57 82.26 287.53 81.04
  C 285.98 80.11 284.89 80.18 284.37 82.06
  Q 285.13 70.70 284.54 59.47
  A 1.00 1.00 0.0 0 1 285.55 58.42
  L 321.76 58.54
  A 1.00 1.00 0.0 0 1 322.76 59.54
  L 322.73 78.30
  A 1.01 1.00 -89.2 0 1 321.71 79.30
  Q 309.22 79.10 295.74 78.71
  Q 291.99 78.61 292.00 81.96
  Z
  M 314.6834 67.5323
  A 1.41 1.41 0.0 0 0 313.2612 66.1347
  L 293.6819 66.3056
  A 1.41 1.41 0.0 0 0 292.2843 67.7278
  L 292.3166 71.4277
  A 1.41 1.41 0.0 0 0 293.7388 72.8253
  L 313.3181 72.6544
  A 1.41 1.41 0.0 0 0 314.7157 71.2322
  L 314.6834 67.5323
  Z"
/>
<path fill="#8e0726" d="
  M 343.06 76.66
  Q 341.37 74.94 339.83 76.19
  C 337.96 77.70 338.74 79.91 335.54 81.00
  L 335.02 59.25
  A 1.01 1.01 0.0 0 1 336.04 58.22
  L 342.25 58.33
  A 1.00 0.99 89.7 0 1 343.23 59.31
  L 343.32 63.68
  Q 343.37 66.36 345.75 66.32
  L 364.77 66.05
  A 0.99 0.99 0.0 0 1 365.78 67.07
  L 365.67 72.09
  A 1.01 1.01 0.0 0 1 364.65 73.07
  L 344.55 72.82
  A 1.04 1.04 0.0 0 0 343.84 73.10
  Q 342.42 74.48 343.06 76.66
  Z"
/>
<path fill="#b00e1b" d="
  M 467.71 82.08
  Q 468.51 78.61 465.00 78.68
  L 442.74 79.13
  A 1.02 1.01 -20.7 0 1 441.95 78.78
  L 435.98 71.68
  A 1.00 0.97 25.5 0 1 435.74 71.04
  L 435.76 59.52
  A 1.00 1.00 0.0 0 1 436.75 58.52
  L 473.98 58.21
  A 1.01 1.00 89.4 0 1 474.99 59.21
  L 475.01 92.00
  A 1.00 1.00 0.0 0 1 474.01 93.00
  L 439.40 93.00
  A 0.99 0.99 0.0 0 1 438.41 92.03
  L 438.25 86.24
  A 1.00 1.00 0.0 0 1 439.26 85.22
  Q 450.28 85.26 461.30 85.26
  C 464.41 85.26 466.74 86.32 467.71 82.08
  Z
  M 467.1687 68.0845
  A 2.59 2.59 0.0 0 0 464.6014 65.4720
  L 445.8421 65.3083
  A 2.59 2.59 0.0 0 0 443.2296 67.8756
  L 443.2113 69.9755
  A 2.59 2.59 0.0 0 0 445.7786 72.5880
  L 464.5379 72.7517
  A 2.59 2.59 0.0 0 0 467.1504 70.1844
  L 467.1687 68.0845
  Z"
/>
<path fill="#8e0726" d="
  M 526.82 58.86
  L 525.76 79.23
  C 516.42 79.87 508.03 78.62 496.95 79.22
  Q 495.37 78.83 493.71 80.20
  A 1.06 0.97 -12.7 0 0 493.39 80.66
  L 492.37 83.79
  A 1.00 0.98 2.0 0 1 491.65 84.45
  Q 490.04 84.83 489.11 86.50
  L 488.67 59.63
  A 1.00 0.99 88.8 0 1 489.64 58.61
  Q 509.33 58.18 522.49 58.23
  Q 525.37 58.24 526.82 58.86
  Z
  M 518.8104 67.5330
  A 1.48 1.48 0.0 0 0 517.3227 66.0607
  L 498.4830 66.1594
  A 1.48 1.48 0.0 0 0 497.0107 67.6471
  L 497.0296 71.2470
  A 1.48 1.48 0.0 0 0 498.5173 72.7193
  L 517.3570 72.6206
  A 1.48 1.48 0.0 0 0 518.8293 71.1329
  L 518.8104 67.5330
  Z"
/>
<path fill="#ac9185" fill-opacity="0.992" d="
  M 526.82 58.86
  Q 527.47 58.85 527.94 58.91
  A 1.00 1.00 0.0 0 1 528.66 60.43
  Q 528.08 61.36 528.07 62.06
  C 527.99 67.50 527.33 72.83 527.18 78.23
  Q 527.14 79.90 525.76 79.23
  L 526.82 58.86
  Z"
/>
<path fill="#e62609" d="
  M 14.27 62.39
  Q 13.18 65.91 11.79 69.24
  C 1.23 94.53 11.97 119.65 33.69 134.82
  Q 41.13 140.02 47.88 141.02
  L 53.46 142.59
  C 82.57 149.79 111.98 132.39 121.50 104.60
  A 1.00 1.00 0.0 0 1 122.96 104.07
  Q 124.00 104.69 123.75 106.52
  Q 123.19 110.51 121.49 113.67
  C 112.86 129.74 97.05 142.73 78.93 146.40
  C 72.19 147.77 60.39 148.03 53.16 146.69
  Q 15.48 139.70 4.00 102.54
  Q 4.79 100.88 6.52 100.38
  A 1.01 1.00 -7.9 0 0 7.24 99.43
  C 7.28 94.82 6.41 90.71 6.72 85.44
  Q 7.51 72.10 14.27 62.39
  Z"
/>
<path fill="#e62609" d="
  M 390.96 76.00
  Q 390.64 81.20 392.35 84.55
  A 0.99 0.98 -13.1 0 0 393.23 85.09
  L 414.35 85.22
  A 1.00 0.99 -88.2 0 0 415.35 84.27
  L 415.79 75.75
  Q 419.32 74.45 423.24 74.62
  Q 423.19 87.17 423.35 89.51
  Q 423.64 93.62 420.03 93.46
  C 410.03 93.02 399.80 93.65 389.90 92.79
  A 1.01 0.99 -16.7 0 1 389.23 92.44
  L 383.20 85.31
  A 0.99 0.98 25.6 0 1 382.96 84.64
  L 383.25 75.13
  Q 386.23 75.09 388.69 73.54
  A 1.01 0.99 48.8 0 1 389.88 73.63
  Q 390.93 74.55 390.96 76.00
  Z"
/>
<path fill="#e62609" d="
  M 169.46 77.50
  L 169.36 92.10
  A 1.00 1.00 0.0 0 1 168.36 93.09
  L 133.05 93.11
  A 1.00 1.00 0.0 0 1 132.05 92.14
  L 131.88 85.94
  A 1.00 1.00 0.0 0 1 132.89 84.91
  L 160.39 85.24
  A 1.00 1.00 0.0 0 0 161.40 84.28
  L 161.79 74.50
  Q 163.05 74.76 163.89 73.88
  A 1.00 1.00 0.0 0 1 165.22 73.76
  Q 166.17 74.48 166.47 75.71
  A 1.01 0.99 -3.5 0 0 167.35 76.47
  Q 168.56 76.58 169.46 77.50
  Z"
/>
<path fill="#e62609" d="
  M 343.06 76.66
  L 343.00 85.33
  A 1.00 1.00 0.0 0 0 344.01 86.34
  L 372.26 86.02
  A 0.99 0.99 0.0 0 1 373.24 86.80
  Q 373.85 89.54 373.07 92.27
  A 1.00 0.99 7.6 0 1 372.11 93.00
  L 336.21 93.00
  A 1.00 1.00 0.0 0 1 335.21 91.97
  L 335.54 81.00
  C 338.74 79.91 337.96 77.70 339.83 76.19
  Q 341.37 74.94 343.06 76.66
  Z"
/>
<path fill="#e62609" d="
  M 189.79 80.25
  Q 188.76 85.27 193.23 85.26
  Q 204.80 85.24 216.31 85.25
  A 1.01 1.01 0.0 0 1 217.31 86.29
  L 217.10 92.05
  A 1.00 1.00 0.0 0 1 216.09 93.02
  Q 205.23 92.86 194.32 93.23
  C 187.68 93.46 180.67 87.59 182.04 80.50
  C 183.33 80.15 184.08 79.93 185.01 78.81
  C 185.95 77.69 190.55 75.55 190.52 78.12
  A 0.83 0.81 -14.0 0 1 190.09 78.82
  Q 189.32 79.23 189.79 80.25
  Z"
/>
<path fill="#fffe8b" d="
  M 1.00 78.71
  C 1.37 78.65 1.51 78.83 1.49 79.19
  Q 0.75 88.62 1.96 98.00
  Q -0.28 98.66 0.00 95.94
  L 0.00 80.94
  L 1.00 78.71
  Z"
/>
<path fill="#e62609" d="
  M 496.95 79.22
  Q 495.48 85.86 501.30 85.49
  C 508.52 85.02 515.78 85.29 522.97 85.00
  A 1.00 1.00 0.0 0 1 524.01 86.01
  L 523.96 92.01
  A 1.00 1.00 0.0 0 1 522.96 93.00
  L 496.58 93.00
  A 1.02 0.97 -26.8 0 1 496.02 92.83
  Q 492.32 90.35 489.11 86.50
  Q 490.04 84.83 491.65 84.45
  A 1.00 0.98 2.0 0 0 492.37 83.79
  L 493.39 80.66
  A 1.06 0.97 -12.7 0 1 493.71 80.20
  Q 495.37 78.83 496.95 79.22
  Z"
/>
<path fill="#fffe8b" d="
  M 77.21 79.37
  L 77.79 80.75
  L 77.75 81.02
  A 0.97 0.95 -12.5 0 1 77.31 81.70
  L 64.04 90.50
  L 64.04 87.75
  Q 70.10 82.87 77.21 79.37
  Z"
/>
<path fill="#e62609" d="
  M 292.00 81.96
  C 292.39 83.88 293.39 85.01 295.48 85.14
  C 303.21 85.60 310.94 85.17 318.67 85.14
  A 1.01 1.00 -7.0 0 1 319.65 85.90
  Q 320.42 89.03 319.74 92.17
  A 1.00 1.00 0.0 0 1 318.76 92.96
  Q 307.24 92.96 295.83 93.16
  C 293.26 93.21 291.05 92.97 289.09 91.16
  Q 285.12 87.52 284.37 82.06
  C 284.89 80.18 285.98 80.11 287.53 81.04
  Q 289.57 82.26 292.00 81.96
  Z"
/>
<path fill="#ac9185" fill-opacity="0.992" d="
  M 244.29 82.00
  Q 242.51 82.25 241.96 84.00
  Q 240.50 83.46 241.00 81.92
  A 1.01 0.99 0.4 0 1 241.68 81.26
  Q 243.18 80.86 244.29 82.00
  Z"
/>
<path fill="#e62609" d="
  M 78.14 100.05
  Q 78.37 106.13 77.62 112.32
  C 76.16 124.40 66.12 133.40 55.75 138.79
  Q 52.30 139.78 48.75 139.71
  C 53.68 132.61 60.94 129.56 62.20 118.76
  Q 63.35 108.93 63.54 99.00
  L 63.84 100.41
  Q 63.88 100.59 63.88 100.41
  C 63.87 99.22 70.49 98.29 71.67 98.13
  A 0.94 0.93 54.1 0 1 72.26 98.23
  Q 73.24 98.72 74.76 98.30
  Q 77.01 97.67 78.14 100.05
  Z"
/>
<path fill="#070406" fill-opacity="0.980" d="
  M 296.8796 118.1144
  A 8.04 7.45 76.7 0 1 287.7798 112.0039
  A 8.04 7.45 76.7 0 1 293.1804 102.4656
  A 8.04 7.45 76.7 0 1 302.2802 108.5761
  A 8.04 7.45 76.7 0 1 296.8796 118.1144
  Z
  M 299.75 113.04
  Q 300.79 112.62 300.46 111.50
  Q 301.87 107.31 298.29 105.50
  C 293.14 99.96 288.99 105.79 289.23 110.95
  C 289.53 117.46 297.55 118.98 299.75 113.04
  Z"
/>
<path fill="#070406" fill-opacity="0.980" d="
  M 247.68 104.43
  A 1.04 1.00 8.1 0 1 248.15 105.03
  Q 249.54 110.09 248.69 115.75
  C 248.00 120.35 244.10 116.39 242.67 115.37
  A 1.01 1.01 0.0 0 0 241.43 115.42
  L 239.02 117.50
  A 1.02 1.00 28.8 0 1 238.21 117.73
  C 233.87 117.02 235.43 107.44 235.24 104.26
  A 0.99 0.98 78.9 0 1 235.91 103.26
  Q 242.00 101.17 247.68 104.43
  Z
  M 247.51 105.42
  C 244.19 102.85 232.76 100.49 236.42 108.90
  A 0.98 0.96 -49.1 0 1 236.46 109.56
  Q 235.53 113.00 236.48 116.38
  A 1.00 1.00 0.0 0 0 238.08 116.88
  L 241.91 113.68
  A 1.00 1.00 0.0 0 1 243.31 113.80
  L 245.79 116.69
  A 1.06 1.06 0.0 0 0 246.41 117.03
  C 248.98 117.38 247.96 107.68 247.89 106.16
  A 1.00 0.98 -72.5 0 0 247.51 105.42
  Z"
/>
<path fill="#613e37" fill-opacity="0.996" d="
  M 310.78 103.12
  A 0.98 0.97 20.2 0 1 311.48 102.80
  L 319.74 102.58
  Q 321.94 102.53 321.97 104.93
  L 322.13 116.00
  Q 322.16 118.08 319.80 118.20
  C 314.89 118.43 309.26 118.95 307.92 112.75
  Q 306.77 107.46 310.78 103.12
  Z
  M 317.02 112.93
  C 317.77 114.02 316.31 114.21 315.69 113.95
  Q 311.77 112.33 313.53 108.26
  A 1.03 1.02 -82.0 0 1 314.32 107.66
  L 319.62 106.97
  A 0.97 0.95 -71.0 0 0 320.20 106.68
  Q 322.03 104.85 319.84 103.27
  Q 318.42 102.25 315.06 103.02
  C 307.39 104.78 306.92 117.45 317.31 117.80
  C 319.76 117.88 321.20 116.72 321.68 114.39
  Q 322.46 110.62 320.84 109.41
  Q 318.07 107.33 315.36 109.46
  A 1.03 1.02 73.4 0 0 314.99 110.16
  Q 314.82 111.96 316.52 112.54
  A 1.04 0.99 81.6 0 1 317.02 112.93
  Z"
/>
<path fill="#070406" fill-opacity="0.980" d="
  M 340.33 114.12
  L 334.99 113.75
  A 1.01 1.00 -89.7 0 1 334.06 112.80
  C 333.95 110.67 339.36 114.34 339.22 109.72
  A 0.99 0.99 0.0 0 0 338.23 108.75
  L 334.53 108.74
  A 0.33 0.32 10.4 0 1 334.22 108.30
  L 334.34 108.01
  A 0.41 0.41 0.0 0 1 334.72 107.75
  L 339.07 107.75
  A 1.05 1.05 0.0 0 0 339.70 107.54
  Q 341.59 106.03 341.58 104.95
  Q 341.56 102.42 342.57 104.74
  Q 342.80 105.28 342.90 105.97
  A 0.97 0.94 -34.9 0 1 342.77 106.63
  Q 340.42 110.59 342.32 114.69
  Q 343.67 117.61 340.70 118.05
  Q 330.25 119.62 328.89 112.16
  Q 328.18 108.24 329.70 105.45
  Q 330.84 103.37 333.12 102.79
  Q 338.15 101.52 333.46 103.75
  Q 327.05 106.80 331.13 116.39
  A 0.98 0.96 -0.5 0 0 331.69 116.93
  C 333.03 117.45 343.94 119.53 341.13 114.62
  A 1.02 1.01 76.9 0 0 340.33 114.12
  Z"
/>
<path fill="#070406" fill-opacity="0.980" d="
  M 489.54 114.50
  L 489.79 113.50
  Q 491.50 114.66 492.63 116.50
  A 1.02 1.00 -14.2 0 0 493.46 116.98
  C 497.06 117.07 495.27 112.56 494.65 110.92
  A 1.03 1.02 48.3 0 1 494.69 110.14
  C 497.29 104.71 490.95 102.82 486.75 103.21
  L 486.96 102.75
  Q 490.57 102.35 492.84 103.41
  C 497.45 105.56 496.10 109.47 496.47 113.31
  C 496.77 116.41 495.98 119.32 492.11 117.37
  A 1.00 0.98 88.6 0 1 491.68 116.95
  Q 490.89 115.46 489.54 114.50
  Z"
/>
<path fill="#8e0726" d="
  M 133.75 102.79
  L 133.79 103.25
  L 132.46 104.50
  L 131.79 104.50
  Q 131.55 102.42 133.75 102.79
  Z"
/>
<path fill="#070406" fill-opacity="0.980" d="
  M 133.75 102.79
  Q 138.54 102.45 142.76 103.17
  Q 145.66 103.66 146.14 106.56
  C 147.78 116.49 144.23 120.41 134.22 118.21
  Q 131.75 117.67 131.76 115.25
  L 131.79 104.50
  L 132.46 104.50
  L 132.35 115.19
  Q 132.32 117.79 135.10 117.77
  C 145.18 117.72 146.31 117.00 145.47 106.90
  Q 145.21 103.73 142.34 103.61
  L 133.79 103.25
  L 133.75 102.79
  Z"
/>
<path fill="#070406" fill-opacity="0.980" d="
  M 157.00 103.96
  L 156.25 103.71
  C 158.13 102.81 162.34 102.28 163.97 103.96
  Q 167.04 107.12 163.07 104.17
  Q 160.60 102.34 157.00 103.96
  Z"
/>
<path fill="#070406" fill-opacity="0.980" d="
  M 173.68 116.13
  C 169.63 98.67 189.69 97.59 187.60 115.91
  A 0.98 0.96 71.9 0 1 187.31 116.50
  Q 184.68 119.13 182.80 116.83
  C 181.74 115.54 182.69 106.41 179.54 108.90
  A 1.04 1.02 75.3 0 0 179.17 109.55
  C 178.79 112.22 179.67 121.06 174.04 116.70
  A 1.02 1.00 -77.6 0 1 173.68 116.13
  Z
  M 174.60 116.34
  C 180.88 121.74 174.84 103.13 182.21 108.79
  A 1.06 1.05 13.6 0 1 182.57 109.37
  C 182.95 111.06 182.28 117.68 185.02 116.93
  C 187.65 116.21 186.61 110.96 186.48 109.16
  C 186.04 103.03 177.88 100.95 175.02 106.37
  C 173.74 108.80 174.29 112.73 174.25 115.57
  A 0.98 0.97 -69.6 0 0 174.60 116.34
  Z"
/>
<path fill="#070406" fill-opacity="0.980" d="
  M 196.25 117.75
  Q 195.22 117.87 194.08 117.21
  A 1.01 0.99 12.8 0 1 193.59 116.45
  Q 192.95 110.45 193.36 104.42
  A 0.99 0.99 0.0 0 1 193.95 103.58
  Q 194.51 103.33 195.09 103.16
  Q 196.47 102.77 195.39 103.72
  Q 194.63 104.40 194.54 105.55
  Q 194.41 107.33 194.51 115.83
  A 1.04 1.00 20.3 0 0 194.87 116.58
  L 196.25 117.75
  Z"
/>
<path fill="#070406" fill-opacity="0.980" d="
  M 269.69 102.94
  Q 269.96 102.87 270.21 102.82
  Q 272.08 102.50 270.42 103.43
  L 269.12 104.17
  Q 267.48 105.09 268.58 103.57
  Q 268.90 103.14 269.69 102.94
  Z"
/>
<path fill="#613e37" fill-opacity="0.996" d="
  M 384.23 108.27
  Q 381.10 107.08 381.79 103.65
  A 1.00 1.00 0.0 0 1 382.69 102.85
  Q 388.15 102.45 393.57 103.15
  A 1.04 1.00 -16.4 0 1 394.20 103.48
  Q 395.77 105.27 394.50 107.03
  A 1.01 1.00 -83.0 0 1 394.06 107.38
  Q 392.23 108.11 390.58 109.14
  A 1.01 1.01 0.0 0 0 390.22 110.45
  Q 392.04 114.01 389.98 117.34
  A 1.00 0.98 9.5 0 1 389.35 117.78
  C 385.59 118.63 385.16 116.17 385.43 113.12
  Q 385.63 110.90 384.80 108.83
  A 0.98 0.97 89.2 0 0 384.23 108.27
  Z
  M 386.50 107.29
  Q 385.61 108.88 385.81 110.63
  A 1.01 1.00 -1.4 0 0 386.74 111.51
  L 387.25 111.54
  C 384.90 115.53 389.05 119.68 390.17 114.94
  Q 390.82 112.17 388.75 110.46
  L 389.25 107.29
  Q 391.84 107.83 393.88 105.59
  A 1.00 0.99 -61.8 0 0 393.39 103.95
  Q 390.76 103.29 388.55 104.28
  A 1.05 1.01 -46.2 0 1 387.83 104.31
  Q 387.10 104.07 386.39 103.76
  C 381.45 101.56 381.84 108.52 386.50 107.29
  Z"
/>
<path fill="#070406" fill-opacity="0.980" d="
  M 412.55 111.13
  C 413.29 106.26 406.55 110.09 407.55 108.08
  A 1.00 0.99 15.6 0 1 408.53 107.53
  L 411.85 107.81
  A 1.02 1.00 30.4 0 0 412.49 107.65
  Q 414.88 106.05 414.06 104.29
  Q 412.57 101.11 414.62 103.96
  Q 415.14 104.68 415.16 105.75
  C 415.21 109.59 413.11 110.85 414.96 115.32
  Q 416.07 118.01 413.17 118.36
  Q 400.30 119.88 401.48 108.52
  Q 401.79 105.55 403.69 104.14
  Q 404.57 103.48 405.57 103.14
  Q 410.33 101.50 405.82 103.74
  Q 405.19 104.05 404.63 104.48
  C 401.53 106.81 401.90 114.32 404.92 116.54
  C 406.95 118.04 416.72 119.25 413.66 114.43
  A 0.99 0.99 0.0 0 0 412.74 113.97
  C 411.34 114.09 408.27 114.25 407.14 113.36
  C 404.78 111.50 411.13 112.22 411.92 111.91
  A 1.00 0.98 84.6 0 0 412.55 111.13
  Z"
/>
<path fill="#613e37" fill-opacity="0.996" d="
  M 430.25 102.96
  L 429.75 103.21
  Q 425.92 102.50 423.33 103.83
  Q 422.94 104.03 422.72 104.38
  Q 421.91 105.69 422.24 104.19
  Q 422.32 103.83 422.48 103.50
  A 1.02 1.01 -76.8 0 1 423.39 102.93
  L 430.25 102.96
  Z"
/>
<path fill="#070406" fill-opacity="0.980" d="
  M 449.29 114.50
  L 449.54 113.75
  C 453.85 113.41 457.03 109.47 454.10 105.67
  C 451.99 102.93 447.49 102.66 444.54 103.25
  L 444.46 103.00
  C 455.62 99.94 461.60 113.63 449.29 114.50
  Z"
/>
<path fill="#070406" fill-opacity="0.980" d="
  M 463.69 105.19
  Q 464.87 103.39 466.86 102.93
  Q 470.39 102.11 467.06 103.55
  Q 465.94 104.03 465.07 104.89
  C 462.77 107.14 462.81 112.31 464.07 114.92
  Q 465.06 116.97 463.69 115.42
  C 461.49 112.95 462.16 107.51 463.69 105.19
  Z"
/>
<path fill="#070406" fill-opacity="0.980" d="
  M 473.78 113.73
  A 0.99 0.98 49.4 0 0 472.93 113.66
  Q 470.11 114.71 467.78 113.04
  A 0.51 0.51 0.0 0 1 467.58 112.48
  C 467.72 112.00 472.29 112.44 473.75 111.36
  A 1.00 0.98 -25.5 0 0 474.13 110.31
  C 473.62 108.31 470.82 108.68 468.69 108.77
  A 0.51 0.51 0.0 0 1 468.26 108.56
  C 467.07 106.94 472.28 107.78 472.60 107.82
  A 1.01 0.98 -58.9 0 0 473.28 107.64
  Q 476.91 105.12 473.85 103.51
  Q 471.07 102.06 474.13 102.75
  Q 475.24 103.00 475.76 104.25
  Q 476.80 106.80 474.78 109.83
  A 1.00 0.99 55.5 0 0 474.64 110.59
  L 475.90 116.61
  A 1.01 1.00 73.4 0 1 475.29 117.75
  Q 471.86 119.10 468.69 118.38
  Q 463.48 117.19 468.79 117.73
  Q 470.86 117.94 472.92 117.68
  C 475.15 117.40 476.29 115.17 473.78 113.73
  Z"
/>
<path fill="#613e37" fill-opacity="0.996" d="
  M 486.96 102.75
  L 486.75 103.21
  Q 482.12 104.34 484.10 108.34
  A 0.95 0.90 38.0 0 1 484.19 108.94
  L 483.14 115.35
  Q 483.03 116.00 482.67 115.45
  C 482.44 115.10 482.54 105.13 482.89 103.85
  A 1.01 1.01 0.0 0 1 483.74 103.12
  L 486.96 102.75
  Z"
/>
<path fill="#ac9185" fill-opacity="0.992" d="
  M 506.00 109.79
  L 506.04 110.50
  Q 503.41 113.66 506.04 116.75
  L 506.00 117.21
  C 503.10 115.71 502.92 110.78 503.24 107.99
  Q 503.73 103.78 507.46 103.12
  Q 509.49 102.77 507.61 103.62
  L 506.22 104.25
  Q 506.02 104.34 505.88 104.50
  Q 503.51 107.18 506.00 109.79
  Z"
/>
<path fill="#070406" fill-opacity="0.980" d="
  M 506.00 117.21
  L 506.04 116.75
  Q 509.55 118.43 513.35 117.70
  C 517.07 116.98 515.59 114.26 512.60 114.18
  Q 508.51 114.07 506.52 110.49
  A 0.23 0.22 -27.7 0 0 506.23 110.41
  L 506.04 110.50
  L 506.00 109.79
  Q 507.96 107.22 511.39 107.68
  Q 513.76 108.00 515.24 106.11
  Q 515.54 105.72 515.67 105.37
  Q 516.29 103.64 516.65 105.44
  Q 516.79 106.14 516.76 107.02
  A 1.00 1.00 0.0 0 1 515.78 108.00
  C 514.76 108.01 505.20 107.54 508.86 111.95
  C 510.87 114.38 519.27 112.00 515.98 117.39
  A 0.99 0.99 0.0 0 1 515.47 117.81
  Q 510.49 119.62 506.00 117.21
  Z"
/>
<path fill="#613e37" fill-opacity="0.996" d="
  M 524.22 112.94
  C 523.90 115.77 525.17 120.18 528.52 115.46
  A 1.02 1.00 -77.6 0 1 529.13 115.06
  Q 531.06 114.65 532.15 115.97
  Q 533.45 117.53 531.73 116.45
  Q 529.23 114.89 527.47 117.67
  A 1.00 0.99 8.4 0 1 526.87 118.11
  C 522.26 119.27 523.08 110.40 523.43 108.18
  C 524.73 99.89 536.95 102.02 536.79 108.38
  Q 536.76 109.56 536.39 108.44
  Q 534.43 102.67 528.94 103.49
  C 523.25 104.33 524.65 108.95 524.22 112.94
  Z"
/>
<path fill="#070406" fill-opacity="0.980" d="
  M 573.75 117.25
  Q 570.03 114.52 567.19 117.78
  A 1.01 1.01 0.0 0 1 566.27 118.11
  C 562.64 117.50 563.71 110.57 564.09 108.21
  Q 564.75 104.14 568.06 103.15
  Q 570.88 102.32 568.25 103.64
  Q 567.47 104.03 566.77 104.57
  C 563.82 106.82 563.86 112.33 564.51 115.58
  Q 565.20 118.96 567.43 116.34
  Q 570.37 112.89 573.75 117.25
  Z"
/>
<ellipse fill="#070406" fill-opacity="0.980" cx="0.00" cy="0.00" transform="translate(204.02,103.60) rotate(22.7)" rx="1.28" ry="0.26"/>
<path fill="#070406" fill-opacity="0.980" d="
  M 217.63 117.30
  C 220.00 117.20 219.37 114.12 223.06 115.16
  A 1.04 1.04 0.0 0 1 223.56 115.49
  C 228.91 122.01 231.33 106.45 223.78 103.46
  Q 222.35 102.90 223.79 103.07
  C 229.86 103.78 231.23 118.88 225.68 117.82
  A 1.07 1.02 71.5 0 1 225.17 117.55
  Q 221.79 114.23 218.71 117.66
  A 0.99 0.97 21.0 0 1 217.95 117.99
  C 214.34 117.94 215.15 110.29 215.35 108.02
  Q 215.49 106.43 216.34 105.38
  Q 218.47 102.77 216.89 105.75
  Q 216.29 106.86 216.11 108.23
  Q 215.50 112.67 216.63 116.58
  A 1.00 0.99 -8.8 0 0 217.63 117.30
  Z"
/>
<path fill="#070406" fill-opacity="0.980" d="
  M 276.42 115.81
  Q 276.82 114.62 276.69 113.45
  Q 276.43 110.91 277.22 108.46
  A 0.99 0.96 86.7 0 1 277.73 107.87
  Q 280.01 106.75 279.89 104.58
  Q 279.78 102.54 281.04 104.15
  Q 282.15 105.58 280.90 107.54
  A 1.03 1.02 -74.5 0 1 280.08 108.01
  Q 276.95 108.08 277.65 111.44
  Q 278.23 114.22 277.17 116.13
  Q 275.03 119.99 276.42 115.81
  Z"
/>
<path fill="#070406" fill-opacity="0.980" d="
  M 430.25 102.96
  C 435.77 103.38 435.62 108.17 435.26 112.98
  C 435.09 115.25 436.27 117.93 432.55 118.30
  C 432.23 118.33 431.47 118.00 432.01 117.60
  A 0.43 0.41 25.8 0 1 432.26 117.52
  Q 433.90 117.55 434.62 116.05
  Q 434.73 115.81 434.71 115.54
  C 434.40 111.06 436.39 104.18 429.75 103.21
  L 430.25 102.96
  Z"
/>
<path fill="#613e37" fill-opacity="0.996" d="
  M 444.46 103.00
  L 444.54 103.25
  L 443.30 104.64
  A 1.00 0.99 61.9 0 0 443.06 105.43
  Q 443.47 108.59 443.27 114.42
  Q 443.16 117.29 445.56 116.51
  A 0.97 0.97 0.0 0 0 446.16 115.98
  Q 447.21 113.70 449.54 113.75
  L 449.29 114.50
  C 439.78 124.85 442.19 107.85 442.26 104.74
  Q 442.31 102.73 444.46 103.00
  Z"
/>
<path fill="#070406" fill-opacity="0.980" d="
  M 543.75 103.70
  A 1.00 1.00 0.0 0 1 544.67 102.98
  C 550.83 102.66 547.50 108.71 550.81 108.42
  A 1.01 1.00 3.1 0 0 551.70 107.63
  L 552.47 104.06
  A 1.00 0.99 -1.0 0 1 553.21 103.30
  C 559.96 101.64 557.64 110.86 554.20 113.35
  Q 553.99 113.50 553.88 113.72
  L 551.97 117.70
  Q 550.82 120.10 548.58 116.94
  C 545.73 112.91 542.16 109.29 543.75 103.70
  Z
  M 544.24 105.56
  C 543.29 110.70 547.73 113.49 549.38 117.17
  A 1.00 1.00 0.0 0 0 551.08 117.37
  Q 552.21 115.92 552.71 114.02
  A 1.00 0.99 79.6 0 1 553.09 113.46
  Q 556.53 110.97 556.73 106.84
  C 556.83 104.56 554.98 102.25 552.92 104.89
  A 0.97 0.96 -28.2 0 0 552.71 105.57
  C 552.94 109.38 548.76 111.96 548.18 107.26
  C 547.90 104.91 545.12 100.77 544.24 105.56
  Z"
/>
<path fill="#070406" fill-opacity="0.980" d="
  M 352.15 103.89
  Q 350.96 103.42 349.84 104.41
  A 1.00 0.99 -22.8 0 0 349.50 105.24
  C 349.64 106.99 349.33 111.21 349.78 112.55
  Q 351.67 118.24 349.05 113.03
  C 348.35 111.63 348.69 106.29 348.73 104.53
  A 0.99 0.98 76.9 0 1 349.26 103.67
  Q 352.09 102.16 353.98 104.80
  A 0.98 0.97 -57.6 0 1 354.15 105.58
  Q 353.49 108.87 354.56 111.86
  Q 355.25 113.78 353.87 112.28
  Q 352.92 111.23 353.18 109.74
  C 353.52 107.79 354.49 104.81 352.15 103.89
  Z"
/>
<path fill="#ac9185" fill-opacity="0.992" d="
  M 156.25 103.71
  L 157.00 103.96
  Q 155.23 104.83 155.44 106.52
  Q 155.88 110.16 154.24 115.00
  Q 153.82 116.24 154.90 117.14
  Q 155.83 117.91 154.63 117.86
  Q 154.08 117.84 153.61 117.34
  A 0.99 0.98 22.3 0 1 153.35 116.73
  C 153.06 112.23 151.88 106.66 156.25 103.71
  Z"
/>
<path fill="#ac9185" fill-opacity="0.992" d="
  M 298.29 105.50
  Q 301.87 107.31 300.46 111.50
  Q 299.00 110.69 298.25 112.46
  L 297.00 113.21
  L 297.21 110.75
  L 297.46 108.75
  L 297.79 108.25
  Q 299.46 107.27 298.29 105.50
  Z"
/>
<path fill="#070406" fill-opacity="0.980" d="
  M 273.63 117.07
  Q 274.95 117.56 273.25 117.45
  A 1.01 1.01 0.0 0 1 272.31 116.46
  L 272.22 109.57
  A 0.97 0.95 -67.8 0 0 271.94 108.89
  Q 271.15 108.08 270.00 107.93
  A 1.00 0.99 -12.3 0 1 269.28 107.47
  Q 267.97 105.40 269.74 107.09
  A 1.02 1.01 -20.6 0 0 270.36 107.37
  C 273.91 107.62 273.09 113.69 272.97 116.08
  A 1.02 1.01 11.6 0 0 273.63 117.07
  Z"
/>
<path fill="#070406" fill-opacity="0.980" d="
  M 165.95 108.76
  Q 165.89 108.42 165.87 108.08
  Q 165.72 106.11 166.28 108.01
  Q 167.75 113.06 166.71 116.42
  Q 166.18 118.14 164.79 117.99
  Q 163.28 117.83 164.66 117.21
  Q 166.34 116.46 166.26 114.25
  C 166.18 112.44 166.28 110.58 165.95 108.76
  Z"
/>
<path fill="#070406" fill-opacity="0.980" d="
  M 196.25 117.75
  Q 197.99 117.86 199.76 117.96
  C 204.85 118.25 208.96 114.29 207.67 108.82
  Q 206.72 104.79 208.18 108.81
  C 209.10 111.34 207.92 115.35 205.50 116.96
  Q 201.44 119.66 196.25 117.75
  Z"
/>
<path fill="#070406" fill-opacity="0.980" d="
  M 297.79 108.25
  L 297.46 108.75
  Q 295.92 109.58 297.21 110.75
  L 297.00 113.21
  Q 292.38 115.68 291.50 110.79
  L 292.50 107.21
  Q 295.60 105.78 297.79 108.25
  Z
  M 295.54 111.75
  Q 297.65 110.40 295.54 110.00
  Q 296.85 107.29 294.30 107.81
  A 1.00 0.99 85.9 0 0 293.50 108.74
  L 293.35 111.73
  A 1.00 1.00 0.0 0 0 293.90 112.67
  Q 295.05 113.25 295.54 111.75
  Z"
/>
<path fill="#ac9185" fill-opacity="0.992" d="
  M 389.25 107.29
  L 388.75 110.46
  L 387.25 111.54
  L 386.74 111.51
  A 1.01 1.00 -1.4 0 1 385.81 110.63
  Q 385.61 108.88 386.50 107.29
  Q 387.90 106.77 389.25 107.29
  Z"
/>
<path fill="#613e37" fill-opacity="0.996" d="
  M 292.50 107.21
  L 291.50 110.79
  Q 290.11 108.62 292.50 107.21
  Z"
/>
<path fill="#613e37" fill-opacity="0.996" d="
  M 140.35 107.53
  Q 143.23 108.12 139.24 109.99
  A 1.01 0.99 -33.4 0 1 138.08 109.76
  Q 135.06 106.44 140.35 107.53
  Z"
/>
<path fill="#ac9185" fill-opacity="0.992" d="
  M 161.04 114.25
  Q 159.88 114.68 158.79 114.00
  Q 158.86 112.18 158.35 110.49
  C 156.99 105.88 162.38 106.96 162.00 110.40
  A 1.00 0.98 67.5 0 1 161.80 110.90
  Q 160.69 112.35 161.04 114.25
  Z"
/>
<path fill="#070406" fill-opacity="0.980" d="
  M 203.6526 111.6684
  A 1.88 1.88 0.0 0 1 201.8979 113.6658
  L 200.4209 113.7613
  A 1.88 1.88 0.0 0 1 198.4235 112.0066
  L 198.2674 109.5916
  A 1.88 1.88 0.0 0 1 200.0221 107.5942
  L 201.4991 107.4987
  A 1.88 1.88 0.0 0 1 203.4965 109.2534
  L 203.6526 111.6684
  Z
  M 200.4957 113.1714
  A 2.60 2.19 98.5 0 0 203.0459 110.9237
  A 2.60 2.19 98.5 0 0 201.2643 108.0286
  A 2.60 2.19 98.5 0 0 198.7141 110.2763
  A 2.60 2.19 98.5 0 0 200.4957 113.1714
  Z"
/>
<path fill="#ac9185" fill-opacity="0.992" d="
  M 243.54 108.00
  Q 243.11 110.08 241.00 110.04
  C 237.26 108.97 241.17 106.63 243.54 108.00
  Z"
/>
<path fill="#070406" fill-opacity="0.980" d="
  M 421.86 108.66
  Q 422.64 106.28 422.48 109.34
  Q 422.40 110.69 421.85 109.45
  Q 421.71 109.14 421.86 108.66
  Z"
/>
<path fill="#ac9185" fill-opacity="0.992" d="
  M 430.45 109.81
  Q 428.27 111.77 426.56 109.12
  A 1.00 1.00 0.0 0 1 427.07 107.63
  Q 429.21 106.89 430.53 108.41
  A 1.00 1.00 0.0 0 1 430.45 109.81
  Z"
/>
<path fill="#ac9185" fill-opacity="0.992" d="
  M 449.25 111.71
  Q 450.26 108.91 447.50 110.04
  Q 445.15 107.12 449.38 107.53
  A 1.01 1.01 0.0 0 1 449.93 107.76
  Q 452.57 110.01 449.25 111.71
  Z"
/>
<path fill="#ac9185" fill-opacity="0.992" d="
  M 489.79 113.50
  L 489.54 114.50
  L 486.30 117.74
  A 1.04 0.97 13.4 0 1 485.84 118.00
  Q 484.11 118.44 483.38 116.98
  Q 482.79 115.80 483.79 116.67
  L 484.17 117.00
  A 1.00 0.99 -41.6 0 0 485.39 117.07
  Q 488.59 114.89 489.00 111.04
  Q 492.73 108.96 488.00 110.29
  Q 487.05 109.90 486.75 108.98
  A 0.99 0.99 0.0 0 1 487.35 107.74
  Q 490.59 106.52 492.05 109.28
  A 1.00 0.99 -27.5 0 1 491.62 110.63
  Q 489.96 111.49 489.79 113.50
  Z"
/>
<ellipse fill="#ac9185" fill-opacity="0.992" cx="0.00" cy="0.00" transform="translate(221.76,109.42) rotate(16.1)" rx="2.02" ry="1.41"/>
<path fill="#ac9185" fill-opacity="0.992" d="
  M 295.54 110.00
  Q 294.98 110.87 295.54 111.75
  Q 295.05 113.25 293.90 112.67
  A 1.00 1.00 0.0 0 1 293.35 111.73
  L 293.50 108.74
  A 1.00 0.99 85.9 0 1 294.30 107.81
  Q 296.85 107.29 295.54 110.00
  Z"
/>
<path fill="#ac9185" fill-opacity="0.992" d="
  M 528.72 108.36
  Q 529.85 106.78 531.60 109.12
  A 1.00 1.00 0.0 0 1 531.10 110.67
  Q 529.41 111.22 528.68 110.51
  Q 527.80 109.66 528.72 108.36
  Z"
/>
<path fill="#613e37" fill-opacity="0.996" d="
  M 243.54 108.00
  C 246.65 109.49 243.09 112.53 241.00 110.04
  Q 243.11 110.08 243.54 108.00
  Z"
/>
<path fill="#ac9185" fill-opacity="0.992" d="
  M 571.85 108.78
  A 1.01 0.99 -61.8 0 1 572.22 110.04
  Q 571.65 111.28 569.49 110.76
  A 1.01 1.00 6.8 0 1 568.73 109.80
  Q 568.68 106.75 571.85 108.78
  Z"
/>
<path fill="#613e37" fill-opacity="0.996" d="
  M 449.25 111.71
  L 447.50 110.04
  Q 450.26 108.91 449.25 111.71
  Z"
/>
<path fill="#070406" fill-opacity="0.980" d="
  M 489.00 111.04
  L 488.00 110.29
  Q 492.73 108.96 489.00 111.04
  Z"
/>
<path fill="#613e37" fill-opacity="0.996" d="
  M 140.78 112.27
  C 143.50 113.36 140.93 114.24 139.86 114.31
  Q 134.99 114.66 137.36 111.45
  A 1.00 1.00 0.0 0 1 138.70 111.20
  Q 139.73 111.84 140.78 112.27
  Z"
/>
<path fill="#613e37" fill-opacity="0.996" d="
  M 300.46 111.50
  Q 300.79 112.62 299.75 113.04
  L 298.25 112.46
  Q 299.00 110.69 300.46 111.50
  Z"
/>
<path fill="#070406" fill-opacity="0.980" d="
  M 360.54 114.49
  L 357.87 114.08
  Q 355.42 113.71 357.88 113.43
  Q 360.81 113.10 362.92 115.46
  A 1.01 1.01 0.0 0 1 362.68 116.99
  Q 359.02 119.18 355.43 118.44
  Q 351.37 117.59 355.51 117.92
  Q 358.38 118.15 360.21 117.53
  Q 362.05 116.91 361.32 115.10
  A 1.02 1.02 0.0 0 0 360.54 114.49
  Z"
/>
<path fill="#613e37" fill-opacity="0.996" d="
  M 158.79 114.00
  Q 159.88 114.68 161.04 114.25
  Q 163.07 116.52 160.85 115.56
  A 1.02 1.00 37.0 0 0 159.84 115.69
  Q 155.63 118.95 158.79 114.00
  Z"
/>
<path fill="#070406" fill-opacity="0.980" d="
  M 426.24 116.24
  Q 426.79 113.82 428.49 114.03
  Q 431.83 114.43 428.52 115.04
  Q 428.27 115.08 428.04 115.16
  C 427.07 115.50 426.17 117.34 425.17 118.10
  A 1.04 1.03 34.5 0 1 424.29 118.26
  Q 422.19 117.66 425.46 117.00
  A 1.01 0.99 0.4 0 0 426.24 116.24
  Z"
/>
<path fill="#070406" fill-opacity="0.980" d="
  M 573.75 117.25
  L 575.63 117.25
  Q 577.07 117.25 575.72 117.76
  Q 574.61 118.17 573.75 117.25
  Z"
/>
<path fill="#070406" fill-opacity="0.980" d="
  M 533.50 117.91
  C 532.71 116.96 534.94 117.68 535.86 117.05
  Q 537.38 116.01 536.21 117.43
  Q 535.48 118.33 534.22 118.27
  A 0.99 0.99 0.0 0 1 533.50 117.91
  Z"
/>
<path fill="#fffe8b" d="
  M 55.75 138.79
  Q 53.60 139.68 53.46 142.59
  L 47.88 141.02
  L 48.75 139.71
  Q 52.30 139.78 55.75 138.79
  Z"
/>
</svg>
